<svg width="153" height="140" viewBox="0 0 153 140" fill="none" xmlns="http://www.w3.org/2000/svg">
<path d="M151.232 12.3754L144.528 8.24944C143.521 7.62943 142.223 7.76493 141.366 8.58L137.697 12.0672C134.289 15.3063 129.585 16.6333 125.062 15.7295C124.95 12.6619 123.972 9.64939 122.195 7.07553C119.574 3.27593 115.446 0.74942 110.871 0.143701C102.516 -0.961723 94.7534 4.4156 92.8088 12.6524C91.6525 17.5505 90.3264 22.4023 88.8431 27.2025H87.8112C82.2469 27.2025 76.9898 29.343 73.0077 33.2302C70.0053 36.1608 66.0419 37.7748 61.8463 37.7748H7.81779C4.34846 30.6733 4.35292 22.4818 7.81362 15.3969H83.4104C84.8502 15.3969 86.017 14.2298 86.017 12.7903C86.017 11.3507 84.8502 10.1836 83.4104 10.1836H6.23857C5.29634 10.1836 4.42767 10.692 3.96638 11.5133C-1.23792 20.7748 -1.32548 31.8817 3.73142 41.2245L3.94643 41.6221C4.40236 42.4634 5.28205 42.9875 6.23887 42.9875H61.8469C67.4112 42.9875 72.6682 40.8469 76.6501 36.9598C79.4952 34.1822 83.2046 32.5902 87.1554 32.4309C77.1093 62.3139 60.776 89.9873 39.2545 113.36C34.8893 118.101 34.8679 125.258 39.2041 130.01L44.6544 135.982C46.9728 138.522 50.2756 139.987 53.7155 140C53.731 140 53.7462 140 53.7614 140C57.1702 140 60.4487 138.571 62.7617 136.074C90.1599 106.499 110.272 70.8786 121.394 32.4154H129.977C140.432 32.4154 149.645 25.368 152.381 15.2775C152.684 14.1625 152.216 12.9811 151.232 12.3754ZM119.812 17.3567C119.808 17.3894 119.806 17.4219 119.802 17.455C119.753 17.9121 119.678 18.3698 119.571 18.8263C109.612 61.1457 88.6453 100.464 58.9377 132.531C57.5892 133.987 55.7524 134.787 53.7628 134.787C53.7539 134.787 53.7441 134.787 53.7352 134.787C51.7203 134.779 49.8626 133.956 48.5049 132.468L43.0547 126.496C40.5549 123.757 40.5698 119.627 43.0895 116.891C69.8942 87.781 88.8413 52.1495 97.883 13.8498C99.0938 8.71907 103.606 5.2134 108.709 5.2134C109.197 5.2134 109.69 5.24527 110.186 5.31108C113.305 5.72383 116.118 7.44628 117.905 10.0356C119.414 12.2232 120.069 14.7775 119.812 17.3567ZM129.977 27.2027H122.839C123.395 25.1149 123.925 23.0187 124.427 20.916C130.483 22.002 136.734 20.175 141.289 15.8463L143.504 13.7408L146.749 15.7382C144.083 22.5747 137.438 27.2027 129.977 27.2027Z" fill="#272727"/>
<path d="M49.1235 124.553C50.7255 124.553 52.0243 123.254 52.0243 121.652C52.0243 120.05 50.7255 118.751 49.1235 118.751C47.5214 118.751 46.2226 120.05 46.2226 121.652C46.2226 123.254 47.5214 124.553 49.1235 124.553Z" fill="#272727"/>
</svg>
