<svg width="90" height="147" viewBox="0 0 90 147" fill="none" xmlns="http://www.w3.org/2000/svg">
<path d="M57.5824 111.943C58.9304 111.943 60.0232 110.851 60.0232 109.503C60.0232 108.155 58.9304 107.062 57.5824 107.062C56.2345 107.062 55.1417 108.155 55.1417 109.503C55.1417 110.851 56.2345 111.943 57.5824 111.943Z" fill="#272727"/>
<path d="M86.9801 142.119H83.2072V140.463C83.2072 136.79 80.2187 133.801 76.5448 133.801C71.5718 133.801 67.5256 129.755 67.5256 124.782V101.209C67.5256 99.8675 66.4434 98.78 65.1047 98.7693V87.6797H71.6014L75.2649 98.3128C75.5391 99.1081 76.2037 99.7065 77.0237 99.8957L86.1928 102.011C86.3775 102.053 86.5618 102.074 86.7435 102.074C87.8546 102.074 88.8589 101.31 89.1194 100.181C89.4225 98.8681 88.6031 97.5575 87.2899 97.2548L79.4389 95.4435L76.7639 87.68H79.4179C84.8015 87.68 89.1817 83.2999 89.1817 77.9163C89.1817 72.5327 84.8015 68.1526 79.4179 68.1526H60.8517V59.3337H64.9668C69.094 59.3337 72.4515 55.9765 72.4515 51.8491C72.4515 47.7219 69.0943 44.3644 64.9668 44.3644H20.6598L18.3004 28.837C17.8083 25.6012 15.3024 23.1637 12.251 22.6012L11.7009 18.9819C14.4471 17.5383 16.1163 14.4657 15.6248 11.2303L14.8849 6.36174C14.5846 4.38528 13.5323 2.64396 11.9222 1.45877C10.3124 0.273581 8.33766 -0.213643 6.36034 0.0863859C2.2808 0.707404 -0.534307 4.53141 0.0855621 8.61095L0.825157 13.4798C1.31698 16.7155 3.82344 19.155 6.87484 19.7169L7.42465 23.3374C6.43126 23.8576 5.55701 24.594 4.87283 25.5237C3.68735 27.1335 3.20013 29.1088 3.50044 31.0853L8.60869 64.7009C8.90901 66.6774 9.96126 68.4187 11.5714 69.6039C12.5168 70.2996 13.5883 70.7518 14.7112 70.9482L15.1401 72.0168C17.0032 76.6613 21.2272 79.7972 26.1232 80.287C27.1858 84.5281 31.0285 87.6792 35.5941 87.6792H50.0552V98.7688C48.7164 98.7794 47.6343 99.867 47.6343 101.208V106.249H39.8775C39.2637 106.249 38.6728 106.48 38.222 106.896L29.7612 114.706C28.7707 115.62 28.7092 117.164 29.6231 118.155C30.1043 118.676 30.7595 118.94 31.4172 118.94C32.009 118.94 32.603 118.726 33.0719 118.293L40.8318 111.13H47.6343V124.781C47.6343 129.754 43.5881 133.801 38.6151 133.801C34.9415 133.801 31.9527 136.789 31.9527 140.463V142.119H28.1798C26.8315 142.119 25.7391 143.211 25.7391 144.559C25.7391 145.908 26.8315 147 28.1798 147H34.3934H80.7653H86.9789C88.3272 147 89.4197 145.908 89.4197 144.559C89.42 143.211 88.3278 142.119 86.9801 142.119ZM64.9677 49.2458C66.4033 49.2458 67.5709 50.4138 67.5709 51.8491C67.5709 53.2843 66.403 54.4523 64.9677 54.4523H22.1933L21.402 49.2456H64.9677V49.2458ZM5.65118 12.7465L4.91159 7.87767C4.69597 6.45878 5.6753 5.1286 7.09419 4.9127C7.78124 4.80647 8.4683 4.97787 9.02845 5.39016C9.5886 5.80245 9.95437 6.40796 10.0586 7.09559L10.7985 11.9641C11.0141 13.3833 10.0351 14.7135 8.61587 14.9291C7.1987 15.1421 5.8668 14.1651 5.65118 12.7465ZM18.1057 65.1204C17.6934 65.6806 17.0882 66.0463 16.4006 66.1506C15.7126 66.2553 15.0259 66.0851 14.4663 65.6731C13.9062 65.2608 13.5404 64.6553 13.4362 63.9677L8.32733 30.3523C8.22282 29.665 8.39221 28.9776 8.8045 28.4181C9.21708 27.8579 9.82231 27.4921 10.5099 27.3879C10.6423 27.3675 10.7749 27.3578 10.9067 27.3578C11.4574 27.3578 11.9923 27.5326 12.4448 27.8654C13.0049 28.2777 13.3707 28.8832 13.4749 29.5705L18.5832 63.1861C18.6874 63.8732 18.5183 64.5605 18.1057 65.1204ZM26.1689 75.3748C25.572 75.2826 24.9937 75.1273 24.4413 74.9149L20.5855 71.8939C20.2231 71.3742 19.9151 70.8078 19.6713 70.1997L19.6386 70.1175C20.5682 69.6025 21.3879 68.8953 22.0371 68.0136C23.2223 66.4038 23.7095 64.4285 23.4092 62.452L22.9352 59.3331H55.9714V68.1517H35.5955C31.0905 68.152 27.2903 71.2195 26.1689 75.3748ZM35.5955 82.7983C32.9027 82.7983 30.7127 80.6082 30.7127 77.9157C30.7127 75.2235 32.9027 73.0331 35.5953 73.0331H79.4188C82.111 73.0331 84.3014 75.2232 84.3014 77.9157C84.3014 80.6082 82.1113 82.7983 79.4188 82.7983H62.6648H52.4974H35.5955V82.7983ZM60.2235 87.6797V98.7682H54.9375V87.6797H60.2235ZM78.3263 142.119H36.8353V140.463C36.8353 139.481 37.6343 138.682 38.6162 138.682C46.2812 138.682 52.5166 132.447 52.5166 124.782V103.65H62.6447V124.782C62.6447 132.447 68.8804 138.682 76.5451 138.682C77.5273 138.682 78.326 139.481 78.326 140.463V142.119H78.3263Z" fill="#272727"/>
</svg>
