<svg width="64" height="139" viewBox="0 0 64 139" fill="none" xmlns="http://www.w3.org/2000/svg">
<path d="M32.0402 124.645C33.6021 124.645 34.8683 123.379 34.8683 121.817C34.8683 120.255 33.6021 118.989 32.0402 118.989C30.4784 118.989 29.2122 120.255 29.2122 121.817C29.2122 123.379 30.4784 124.645 32.0402 124.645Z" fill="#272727"/>
<path d="M34.3229 87.9394C34.3001 86.6398 33.2391 85.6024 31.945 85.6024C31.9306 85.6024 31.9162 85.6024 31.9018 85.6027C30.5878 85.6258 29.5418 86.7098 29.5651 88.0238L29.7595 99.0213C29.7823 100.321 30.8433 101.358 32.1374 101.358C32.1518 101.358 32.1662 101.358 32.1806 101.358C33.4946 101.335 34.5406 100.251 34.5173 98.9369L34.3229 87.9394Z" fill="#272727"/>
<path d="M61.3849 0C60.0707 0 59.0057 1.06503 59.0057 2.37928V11.3673H55.3349V2.37928C55.3349 1.06503 54.2699 0 52.9556 0C51.6414 0 50.5764 1.06503 50.5764 2.37928V11.3673H46.9054V2.37928C46.9054 1.06503 45.8403 0 44.5261 0C43.2118 0 42.1468 1.06503 42.1468 2.37928V11.3673H38.4761V2.37928C38.4761 1.06503 37.411 0 36.0968 0C34.7825 0 33.7175 1.06503 33.7175 2.37928V11.3673H30.0465V2.37928C30.0465 1.06503 28.9814 0 27.6672 0C26.3529 0 25.2879 1.06503 25.2879 2.37928V11.3673H21.6172V2.37928C21.6172 1.06503 20.5521 0 19.2379 0C17.9236 0 16.8586 1.06503 16.8586 2.37928V11.3673H13.1879V2.37928C13.1879 1.06503 12.1228 0 10.8086 0C9.49433 0 8.4293 1.06503 8.4293 2.37928V11.3673H4.75857V2.37928C4.75857 1.06503 3.69354 0 2.37928 0C1.06503 0 0 1.06503 0 2.37928V13.7466V39.6038C0 46.563 5.07213 52.3565 11.7132 53.491V118.685C11.7132 129.887 20.8266 139 32.028 139C43.23 139 52.3432 129.887 52.3432 118.685V53.4381C58.8401 52.1857 63.7634 46.4598 63.7634 39.6033V13.7466V2.37928C63.7642 1.06503 62.6992 0 61.3849 0ZM59.0057 39.6038C59.0057 44.7506 54.8186 48.9374 49.6718 48.9374H24.9032C23.589 48.9374 22.5239 50.0024 22.5239 51.3167C22.5239 52.6309 23.589 53.696 24.9032 53.696H47.5851V118.685C47.5851 127.263 40.6064 134.241 32.0286 134.241C23.4508 134.241 16.4723 127.263 16.4723 118.685V51.3164C16.4723 50.0022 15.4073 48.9371 14.093 48.9371C8.94621 48.9371 4.75911 44.7503 4.75911 39.6035V16.1256H59.0057V39.6038V39.6038Z" fill="#272727"/>
<path d="M44.8141 21.6709H18.1582C15.136 21.6709 12.6767 24.1297 12.6767 27.1519V35.1826C12.6767 38.2054 15.1358 40.6642 18.1582 40.6642H44.8141C47.8363 40.6642 50.2956 38.2054 50.2956 35.1826V27.1522C50.2954 24.1297 47.8363 21.6709 44.8141 21.6709ZM45.5371 35.1832C45.5371 35.582 45.2129 35.9062 44.8141 35.9062H18.1582C17.7594 35.9062 17.4352 35.582 17.4352 35.1832V27.1524C17.4352 26.7539 17.7594 26.4297 18.1582 26.4297H44.8141C45.2129 26.4297 45.5371 26.7539 45.5371 27.1524V35.1832Z" fill="#272727"/>
<path d="M32.0411 68.8953C26.7936 68.8953 22.5242 73.1646 22.5242 78.4121V99.6666C22.5242 104.914 26.7936 109.183 32.0411 109.183C37.2886 109.183 41.5579 104.914 41.5579 99.6666V78.4121C41.5579 73.1646 37.2889 68.8953 32.0411 68.8953ZM36.7996 99.6666C36.7996 102.29 34.665 104.425 32.0411 104.425C29.4172 104.425 27.2825 102.29 27.2825 99.6666V78.4121C27.2825 75.7882 29.4172 73.6536 32.0411 73.6536C34.665 73.6536 36.7996 75.7882 36.7996 78.4121V99.6666Z" fill="#272727"/>
</svg>
