<svg width="80" height="76" viewBox="0 0 80 76" fill="none" xmlns="http://www.w3.org/2000/svg">
<path d="M37.1817 29.6528C36.4867 29.6528 35.9231 30.2206 35.9231 30.9211V32.9496C35.9231 33.65 36.4867 34.2179 37.1817 34.2179C37.8767 34.2179 38.4403 33.6501 38.4403 32.9496V30.9211C38.4403 30.2206 37.8767 29.6528 37.1817 29.6528Z" fill="#DDBE8F"/>
<path d="M55.8899 25.1204C53.8127 23.0269 50.4326 23.0269 48.3552 25.1204C47.8637 25.6157 47.8637 26.4186 48.3552 26.9139C48.8468 27.4093 49.6437 27.4093 50.1351 26.9139C51.231 25.8096 53.0143 25.8096 54.1102 26.9139C54.3558 27.1616 54.678 27.2855 55 27.2855C55.3221 27.2855 55.6443 27.1618 55.8899 26.9139C56.3814 26.4186 56.3814 25.6156 55.8899 25.1204Z" fill="#DDBE8F"/>
<path d="M40.949 25.1204C38.8717 23.0269 35.4916 23.027 33.4142 25.1204C32.9226 25.6157 32.9226 26.4186 33.4142 26.9139C33.9058 27.4093 34.7027 27.4093 35.1941 26.9139C36.2902 25.8095 38.0733 25.8097 39.1693 26.9139C39.4149 27.1616 39.7371 27.2855 40.0591 27.2855C40.3811 27.2855 40.7033 27.1618 40.949 26.9139C41.4405 26.4186 41.4405 25.6156 40.949 25.1204Z" fill="#DDBE8F"/>
<path d="M52.1226 29.6528C51.4276 29.6528 50.864 30.2206 50.864 30.9211V32.9496C50.864 33.65 51.4275 34.2179 52.1226 34.2179C52.8178 34.2179 53.3812 33.6501 53.3812 32.9496V30.9211C53.3812 30.2206 52.8176 29.6528 52.1226 29.6528Z" fill="#DDBE8F"/>
<path d="M35.2223 72.5693H34.7241V60.8054C34.7241 57.2305 33.1548 53.9234 30.4624 51.6967C30.784 51.4234 31.1266 51.17 31.4948 50.9445C32.089 50.581 32.2781 49.8011 31.9174 49.2023C31.5566 48.6037 30.7824 48.413 30.1885 48.7764C27.0038 50.7249 25.1024 54.1265 25.1024 57.876V73.8376C25.1024 74.5379 25.6659 75.1058 26.361 75.1058H35.2221C35.9171 75.1058 36.4807 74.5381 36.4807 73.8376C36.4807 73.1371 35.9174 72.5693 35.2223 72.5693ZM32.2071 72.5693H27.6198V66.5857H32.2071V72.5693ZM32.2071 64.0491H27.6198V57.876C27.6198 56.3351 28.0448 54.873 28.8146 53.6182C30.9562 55.3664 32.2071 57.9787 32.2071 60.8054V64.0491Z" fill="#DDBE8F"/>
<path d="M62.9442 70.6441C62.2492 70.6441 61.6856 71.2119 61.6856 71.9124V72.5693H57.0976V69.5449C57.0976 68.8445 56.534 68.2766 55.839 68.2766C55.144 68.2766 54.5804 68.8444 54.5804 69.5449V72.5693H39.4175C38.7225 72.5693 38.1589 73.137 38.1589 73.8375C38.1589 74.5381 38.7224 75.1058 39.4175 75.1058H62.944C63.639 75.1058 64.2026 74.5381 64.2026 73.8375V71.9124C64.2028 71.2119 63.6394 70.6441 62.9442 70.6441Z" fill="#DDBE8F"/>
<path d="M46.5819 27.7927C45.8869 27.7927 45.3233 28.3605 45.3233 29.061V35.0642C45.3233 35.4372 45.0222 35.7406 44.652 35.7406C44.2819 35.7406 43.9808 35.4372 43.9808 35.0642V29.061C43.9808 28.3607 43.4174 27.7927 42.7222 27.7927C42.0272 27.7927 41.4636 28.3605 41.4636 29.061V35.0642C41.4636 36.8359 42.8939 38.2772 44.652 38.2772C46.4102 38.2772 47.8405 36.8359 47.8405 35.0642V29.061C47.8405 28.3607 47.277 27.7927 46.5819 27.7927Z" fill="#DDBE8F"/>
<path d="M67.3379 29.7921C67.3379 27.1107 65.3176 24.8963 62.7297 24.6106L62.4388 21.5768C62.4387 21.5753 62.4385 21.5739 62.4383 21.5723C62.438 21.5696 62.4377 21.5671 62.4376 21.5644C62.1565 18.6578 61.1899 15.8953 59.6232 13.478C60.524 13.2402 61.511 13.1053 62.6093 13.1053C62.988 13.1053 63.3466 12.9335 63.5855 12.6373C63.8244 12.3411 63.9185 11.9524 63.8413 11.5788C63.8173 11.4622 63.233 8.69233 61.5574 5.89692C59.2449 2.03901 55.9819 0 52.121 0C48.7994 0 45.7708 1.2401 43.2864 3.60173C41.998 3.39877 39.0606 3.06497 35.837 3.56709C30.0217 4.47292 26.1196 7.64795 24.5532 12.7489C23.3932 16.5262 23.9759 21.4721 25.3168 24.9147C23.3613 25.6594 21.9668 27.5648 21.9668 29.7929C21.9666 32.1391 23.4941 34.1266 25.6217 34.7794C25.4226 39.4598 27.577 44.0006 31.3596 46.7702L38.2481 51.8126C40.1639 53.2157 42.408 53.9172 44.6525 53.917C46.8964 53.9168 49.1409 53.2154 51.0552 51.8128L57.9436 46.7702C61.7276 44.0009 63.8827 39.4597 63.6833 34.7788C65.8105 34.125 67.3379 32.1378 67.3379 29.7921ZM59.6908 20.1977C57.3474 19.456 55.7927 17.1233 55.1039 15.8701C55.7619 15.337 56.4608 14.8467 57.2255 14.4321C58.4332 16.1649 59.2699 18.1225 59.6908 20.1977ZM25.8532 32.1353C25.034 31.6789 24.4835 30.8009 24.4835 29.7921C24.4835 28.604 25.2565 27.5953 26.3218 27.2466L25.8532 32.1353ZM26.9576 13.4981C28.232 9.34844 31.3271 6.85392 36.1568 6.0835C37.2765 5.90495 38.3678 5.84181 39.3511 5.84181C40.0605 5.84181 40.7136 5.87456 41.2798 5.92038C40.0428 7.65047 39.4794 9.10816 39.4504 9.18374C39.2017 9.8367 39.525 10.5678 40.1722 10.8198C40.8192 11.0718 41.5475 10.7471 41.7992 10.0954C41.8067 10.0759 42.5689 8.13086 44.2542 6.23229C44.3586 6.11483 44.4641 5.99989 44.5703 5.88794C44.5997 5.86007 44.6278 5.83079 44.6545 5.80024C46.753 3.63369 49.2622 2.53593 52.1202 2.53593C55.0753 2.53593 57.5141 4.0892 59.3686 7.15245C60.138 8.4234 60.6507 9.71152 60.9652 10.654C56.0325 11.1821 53.1589 14.0549 50.595 16.6185C49.0486 18.1648 47.5878 19.6252 45.8763 20.2928C41.6056 21.9584 36.957 16.1778 36.9115 16.1205C36.6728 15.8179 36.3101 15.6413 35.9264 15.6413C33.232 15.6413 31.0315 16.5061 29.3857 18.2118C28.2342 19.4051 27.5224 20.8499 27.0835 22.2074C26.3679 19.4462 26.1738 16.0504 26.9576 13.4981ZM50.3991 49.1572L49.575 49.7604C48.4619 50.5762 47.2036 51.0828 45.9102 51.2817V49.3776C45.9102 48.6773 45.3467 48.1094 44.6516 48.1094C43.9564 48.1094 43.393 48.6771 43.393 49.3776V51.2815C42.0997 51.0825 40.8414 50.5758 39.7276 49.7601L38.904 49.1572V43.7937C38.904 42.3038 40.1078 41.0915 41.5873 41.0915H47.7175C49.1963 41.0915 50.3991 42.3038 50.3991 43.7937V49.1572ZM56.4641 44.7175L52.9163 47.3145V43.7937C52.9163 40.9049 50.5842 38.555 47.7175 38.555H41.5873C38.7198 38.555 36.3868 40.9049 36.3868 43.7937V47.3147L32.839 44.7177C29.5749 42.3275 27.7884 38.3284 28.1767 34.2803L28.8932 26.8025L28.8899 26.8022C28.8949 26.7512 28.8999 26.7 28.8987 26.6478C28.8985 26.6407 28.8967 26.513 28.9046 26.2974C28.9281 26.2275 28.9471 26.1553 28.9584 26.0798C28.9809 25.9307 28.9751 25.7841 28.9478 25.644C29.0768 24.2435 29.5407 21.683 31.2 19.971C32.2412 18.8967 33.639 18.3006 35.3612 18.1952C36.5581 19.5462 40.127 23.1364 44.2558 23.1361C45.0812 23.1361 45.9298 22.9923 46.7855 22.6585C48.9877 21.7995 50.6299 20.1577 52.3685 18.4194C52.6403 18.1477 52.9133 17.8751 53.1894 17.6045C53.5182 18.154 53.9461 18.7932 54.476 19.4336C56.0889 21.3829 57.9921 22.5537 60.0341 22.8739L61.1279 34.2803C61.5165 38.3286 59.7294 42.3278 56.4641 44.7175ZM63.4512 32.1347L62.9824 27.247C64.0479 27.5961 64.8204 28.6043 64.8204 29.7921C64.8205 30.8004 64.2704 31.6781 63.4512 32.1347Z" fill="#DDBE8F"/>
<path d="M48.3908 43.2575C48.0944 42.6234 47.3445 42.3515 46.7159 42.6497C45.404 43.2719 43.8991 43.2717 42.5874 42.6497C41.9585 42.3514 41.2085 42.6236 40.9129 43.2574C40.6168 43.8911 40.8869 44.6468 41.5158 44.9452C42.5122 45.4179 43.582 45.6541 44.652 45.6541C45.7217 45.6541 46.7915 45.4179 47.7881 44.9452C48.4169 44.6468 48.6867 43.8911 48.3908 43.2575Z" fill="#DDBE8F"/>
<path d="M75.0495 59.7369C73.5148 59.7369 72.1411 60.4443 71.2323 61.5524L69.4057 57.7483L73.3417 49.5512C73.6445 48.9207 73.3826 48.1622 72.757 47.8572C72.1314 47.5523 71.3786 47.8158 71.0759 48.4466L68.0074 54.8367L64.939 48.4466C64.6365 47.816 63.8835 47.5523 63.2579 47.8572C62.6321 48.1622 62.3704 48.9207 62.6732 49.5512L66.6092 57.7483L64.7826 61.5524C63.8738 60.4441 62.5001 59.7369 60.9654 59.7369C58.2357 59.7369 56.0149 61.9747 56.0149 64.7254C56.0149 67.476 58.2357 69.7139 60.9654 69.7139C63.5907 69.7139 65.7442 67.6437 65.9051 65.0384L68.0074 60.6602L70.1098 65.0384C70.2707 67.6437 72.4243 69.7139 75.0495 69.7139C77.7792 69.7139 80 67.476 80 64.7254C80 61.9747 77.7791 59.7369 75.0495 59.7369ZM60.9654 67.1773C59.6237 67.1773 58.5321 66.0774 58.5321 64.7254C58.5321 63.3733 59.6237 62.2734 60.9654 62.2734C62.3071 62.2734 63.3987 63.3733 63.3987 64.7254C63.3987 66.0774 62.307 67.1773 60.9654 67.1773ZM75.0495 67.1773C73.7078 67.1773 72.6162 66.0774 72.6162 64.7254C72.6162 63.3733 73.7078 62.2734 75.0495 62.2734C76.3912 62.2734 77.4828 63.3733 77.4828 64.7254C77.4828 66.0774 76.3911 67.1773 75.0495 67.1773Z" fill="#DDBE8F"/>
<path d="M20.2998 50.735C21.2398 50.3415 22.3222 50.7918 22.7128 51.739C22.9795 52.3859 23.7158 52.6924 24.3579 52.4237C24.9998 52.1549 25.3039 51.4126 25.0373 50.7658C24.1142 48.527 21.5554 47.4625 19.334 48.3927C18.725 48.6478 18.2042 49.0272 17.787 49.4891L16.3782 46.0722L16.3937 46.0632C17.8921 45.1868 18.9487 43.7024 19.2925 41.9909C19.6354 40.283 19.2362 38.5058 18.1971 37.1152C15.7481 33.8381 12.8779 30.8985 9.66633 28.3778C8.30321 27.3083 6.54617 26.877 4.84632 27.1949C3.14256 27.5134 1.65256 28.554 0.758651 30.0494L0.180681 31.0163C-0.177914 31.6163 0.0138054 32.3957 0.609276 32.7571C5.98945 36.0231 10.5026 40.6382 13.6665 46.1056L16.9793 54.1399L22.0015 66.3204C22.2026 66.8082 22.6707 67.1025 23.1643 67.1023C23.3253 67.1023 23.4889 67.071 23.6468 67.0048C24.2887 66.7361 24.5929 65.9938 24.3262 65.347L19.3042 53.1665C18.9131 52.2191 19.36 51.1284 20.2998 50.735ZM15.2317 43.8077C12.1184 38.7784 7.91695 34.4753 2.97741 31.2569C3.50569 30.4365 4.34772 29.8677 5.30538 29.6886C6.29851 29.5028 7.32414 29.7546 8.11961 30.3788C11.1567 32.7623 13.8707 35.5419 16.1865 38.6407C16.7929 39.4523 17.0259 40.4899 16.8256 41.4875C16.6323 42.4494 16.054 43.2886 15.2317 43.8077Z" fill="#DDBE8F"/>
<path d="M51.1971 53.1539C50.5021 53.1539 49.9385 53.7217 49.9385 54.4222V61.5124H39.3664V54.4222C39.3664 53.7219 38.803 53.1539 38.1078 53.1539C37.4127 53.1539 36.8492 53.7217 36.8492 54.4222V62.7807C36.8492 63.481 37.4127 64.049 38.1078 64.049H51.1971C51.8921 64.049 52.4557 63.481 52.4557 62.7807V54.4222C52.4557 53.7219 51.8921 53.1539 51.1971 53.1539Z" fill="#DDBE8F"/>
<path d="M59.115 48.7768C58.5209 48.4132 57.7467 48.6039 57.3861 49.2027C57.0255 49.8015 57.2145 50.5815 57.8087 50.9449C58.1787 51.1713 58.5231 51.4262 58.8459 51.7011C56.6431 53.5296 55.163 56.1152 54.7192 58.9923C54.6125 59.6845 55.0828 60.3329 55.7695 60.4404C55.8351 60.4506 55.9001 60.4557 55.9644 60.4557C56.5742 60.4557 57.1098 60.0082 57.2065 59.382C57.5578 57.1039 58.7365 55.0581 60.4909 53.6204C61.2604 54.8748 61.6855 56.3362 61.6855 57.8762C61.6855 58.5765 62.2489 59.1444 62.944 59.1444C63.6392 59.1444 64.2026 58.5767 64.2026 57.8762C64.2026 54.1274 62.3009 50.7259 59.115 48.7768Z" fill="#DDBE8F"/>
<path d="M5.27874 23.1026L3.63699 22.5794C2.97416 22.3681 2.26696 22.7384 2.05743 23.4062C1.84789 24.0739 2.21524 24.7867 2.87791 24.9979L4.51967 25.5211C4.64592 25.5614 4.77373 25.5804 4.89967 25.5804C5.43406 25.5804 5.9297 25.235 6.09939 24.6943C6.30877 24.0266 5.94141 23.3138 5.27874 23.1026Z" fill="#DDBE8F"/>
<path d="M13.077 25.5882L11.4353 25.065C10.7728 24.8538 10.0653 25.224 9.85576 25.8917C9.64623 26.5595 10.0136 27.2722 10.6762 27.4834L12.3179 28.0066C12.4442 28.0469 12.572 28.0659 12.6979 28.0659C13.2323 28.0659 13.7279 27.7205 13.8976 27.1798C14.107 26.5122 13.7396 25.7995 13.077 25.5882Z" fill="#DDBE8F"/>
<path d="M9.84971 19.3275C9.18692 19.1164 8.47975 19.4866 8.27023 20.1543L7.75103 21.8087C7.5415 22.4764 7.90883 23.1892 8.57147 23.4004C8.69772 23.4407 8.82552 23.4597 8.95146 23.4597C9.48582 23.4597 9.98143 23.1143 10.1511 22.5736L10.6703 20.9192C10.8797 20.2515 10.5123 19.5387 9.84971 19.3275Z" fill="#DDBE8F"/>
</svg>
