<svg width="80" height="76" viewBox="0 0 80 76" fill="none" xmlns="http://www.w3.org/2000/svg">
<path d="M14.8936 58.031H21.8097C27.2104 63.1894 34.4034 66.0233 42.1275 66.0233C57.8482 66.0233 70.6381 54.0124 70.6381 39.2492V26.4615C70.6381 25.7993 70.0667 25.2627 69.3615 25.2627H14.8934C14.1883 25.2627 13.6169 25.7993 13.6169 26.4615V30.1083C10.1198 30.3851 6.87183 31.7973 4.36204 34.1544C1.54928 36.7962 0 40.3086 0 44.0445C0 47.7805 1.54928 51.2927 4.36238 53.9345C7.17549 56.5761 10.9156 58.031 14.8936 58.031ZM6.16749 35.8499C8.49787 33.6611 11.5968 32.4557 14.8934 32.4557C15.5986 32.4557 16.17 31.9191 16.17 31.2569V27.6604H68.0849V39.2492C68.0849 52.6904 56.4405 63.6256 42.1275 63.6256C34.9268 63.6256 28.2328 60.9202 23.2786 56.0079C23.0376 55.7687 22.7023 55.6334 22.3518 55.6334H14.8936C11.5976 55.6334 8.49872 54.428 6.16766 52.239C3.83677 50.0501 2.55319 47.14 2.55319 44.0445C2.55319 40.949 3.83677 38.0388 6.16749 35.8499Z" fill="#DDBE8F"/>
<path d="M14.8936 53.2356H18.5377C18.994 53.2356 19.4155 53.0069 19.6436 52.6357C19.8715 52.2645 19.8711 51.8072 19.6427 51.4364C17.3707 47.7483 16.17 43.534 16.17 39.2492V36.0523C16.17 35.3901 15.5986 34.8535 14.8934 34.8535C12.2791 34.8535 9.82128 35.8095 7.97294 37.5455C6.12443 39.2814 5.10638 41.5895 5.10638 44.0446C5.10638 46.4994 6.12443 48.8076 7.97311 50.5437C9.82162 52.2796 12.2795 53.2356 14.8936 53.2356ZM9.77838 39.2408C10.8386 38.2451 12.1704 37.5964 13.6168 37.3559V39.2492C13.6168 43.2723 14.5811 47.2392 16.4208 50.8379H14.8936C12.9614 50.8379 11.1448 50.1313 9.77855 48.8482C8.41208 47.565 7.65957 45.8591 7.65957 44.0446C7.65957 42.2298 8.41208 40.524 9.77838 39.2408Z" fill="#DDBE8F"/>
<path d="M42.1273 61.228C47.4535 61.228 52.4754 59.5837 56.6506 56.4726C57.2027 56.0612 57.2953 55.307 56.857 54.7883C56.4189 54.2698 55.6158 54.183 55.0635 54.5944C51.3445 57.3655 46.8712 58.8303 42.1273 58.8303C30.63 58.8303 21.2763 50.0463 21.2763 39.2492L21.2764 32.503C22.9471 32.6357 23.9258 33.0316 25.0262 33.4768C26.4359 34.0471 28.0339 34.6935 31.063 34.6935C34.0923 34.6935 35.6902 34.0471 37.0999 33.4768C38.4545 32.9288 39.624 32.4557 42.1266 32.4557C44.6295 32.4557 45.7992 32.9288 47.1537 33.4768C48.5634 34.0471 50.1615 34.6935 53.1908 34.6935C56.2201 34.6935 57.818 34.0471 59.2279 33.4769C60.3287 33.0316 61.3074 32.6357 62.9785 32.503L62.9784 39.2492C62.9784 43.7042 61.4185 47.905 58.4677 51.3975C58.0294 51.9162 58.122 52.6703 58.6742 53.0818C59.2262 53.4934 60.0293 53.4064 60.4677 52.8879C63.7806 48.9672 65.5316 44.2509 65.5316 39.2492L65.5317 31.2568C65.5317 30.9389 65.3973 30.6341 65.158 30.409C64.9185 30.1843 64.5939 30.058 64.2551 30.058C61.2257 30.058 59.6277 30.7044 58.2179 31.2747C56.8633 31.8227 55.6936 32.2958 53.1908 32.2958C50.688 32.2958 49.5183 31.8227 48.1638 31.2747C46.754 30.7044 45.1559 30.058 42.1266 30.058C39.0975 30.058 37.4996 30.7044 36.0899 31.2747C34.7353 31.8227 33.5656 32.2958 31.063 32.2958C28.5605 32.2958 27.3908 31.8227 26.0366 31.2747C24.6269 30.7044 23.029 30.058 19.9998 30.058C19.2948 30.058 18.7233 30.5946 18.7233 31.2568L18.7231 39.2492C18.7231 51.3682 29.2223 61.228 42.1273 61.228Z" fill="#DDBE8F"/>
<path d="M78.7234 67.8376H5.53191C4.82671 67.8376 4.25531 68.3742 4.25531 69.0365C4.25531 69.6987 4.82671 70.2353 5.53191 70.2353H6.27097L7.00731 72.655C7.54893 74.4354 9.51761 75.8298 11.4894 75.8298H72.766C74.7377 75.8298 76.7064 74.4352 77.2482 72.655L77.9843 70.2353H78.7234C79.4286 70.2353 80 69.6987 80 69.0365C80 68.3742 79.4286 67.8376 78.7234 67.8376ZM74.7932 71.9961C74.5644 72.7476 73.5981 73.432 72.766 73.432H11.4894C10.657 73.432 9.69089 72.7476 9.46229 71.9961L8.92663 70.2351H75.329L74.7932 71.9961Z" fill="#DDBE8F"/>
<path d="M35.2608 18.2431C38.3423 21.1369 42.312 22.8647 45.8793 22.865C48.2184 22.865 50.2259 22.1406 51.6853 20.7702C53.584 18.987 54.3066 16.3571 53.72 13.3646C53.1653 10.5352 51.4868 7.68738 48.9939 5.34629C45.912 2.45229 41.9423 0.724365 38.3752 0.724365C36.0364 0.724365 34.0289 1.44862 32.5697 2.81898C30.6706 4.60253 29.9481 7.23246 30.5345 10.2249C31.0892 13.0542 32.7678 15.902 35.2608 18.2431ZM47.1884 7.04176C49.3193 9.0427 50.7471 11.4423 51.209 13.7986C51.5372 15.4723 51.3384 16.9589 50.6546 18.1067L42.3426 10.3012C41.8439 9.83314 41.0358 9.83314 40.5372 10.3012C40.0386 10.7695 40.0386 11.5285 40.5372 11.9966L48.8502 19.8032C48.0167 20.2402 47.0106 20.4673 45.8803 20.4673C42.9745 20.467 39.6795 19.0017 37.0662 16.5476C34.9353 14.5466 33.5076 12.1471 33.0458 9.79078C32.7176 8.11704 32.9164 6.63048 33.6002 5.48231L36.9266 8.60617C37.176 8.84018 37.5028 8.95719 37.8295 8.95719C38.1561 8.95719 38.4829 8.84018 38.7323 8.60617C39.2308 8.13782 39.2308 7.37888 38.7323 6.91069L35.4051 3.7862C36.2388 3.34918 37.2451 3.1222 38.3757 3.1222C41.2802 3.12188 44.575 4.58718 47.1884 7.04176Z" fill="#DDBE8F"/>
</svg>
