<svg width="80" height="76" viewBox="0 0 80 76" fill="none" xmlns="http://www.w3.org/2000/svg">
<path d="M74.6558 54.7421C74.4022 54.1009 73.6176 53.7656 72.9037 53.9934C72.1897 54.2209 71.8163 54.9253 72.0698 55.5666C72.859 57.5635 72.0597 59.81 70.126 61.0297C67.7434 62.5321 64.4438 62.0145 62.7704 59.8751C61.9598 58.8387 61.6471 57.5809 61.8899 56.3332C62.1326 55.0856 62.9022 53.9978 64.0562 53.2697C65.8012 52.1693 68.0957 52.116 69.9018 53.1342C70.5438 53.4961 71.3904 53.3221 71.7934 52.7459C72.1962 52.1697 72.0026 51.4093 71.361 51.0474C68.6167 49.5002 65.1304 49.5811 62.4791 51.2533C58.8584 53.5369 57.9817 58.0397 60.5249 61.291C62.0849 63.2855 64.5745 64.3527 67.1025 64.3524C68.6953 64.3524 70.3037 63.9285 71.7032 63.0457C74.6415 61.1925 75.8556 57.778 74.6558 54.7421Z" fill="#DDBE8F"/>
<path d="M77.3654 50.1373C75.4596 47.8818 72.6905 46.3368 69.5686 45.7875C66.4456 45.2379 63.2325 45.7309 60.5208 47.1749C59.6623 47.6323 58.8731 48.17 58.1615 48.7823L47.2872 34.8801L52.2068 9.61295C54.9453 13.8193 55.9678 18.7969 55.0219 23.6547L52.2251 38.0201C52.0947 38.6904 52.5939 39.3288 53.3405 39.4458C53.4204 39.4584 53.5001 39.4646 53.5783 39.4646C54.2326 39.4646 54.8117 39.0429 54.9282 38.4445L57.725 24.079C58.9948 17.5574 57.0937 10.8429 52.5095 5.65746C52.1736 5.27753 51.6211 5.10972 51.0969 5.22957C50.5733 5.34912 50.1765 5.73345 50.0834 6.21136L45.0569 32.0286L37.3888 22.2255C36.9533 21.6686 36.0974 21.5343 35.4775 21.9253C34.8574 22.3163 34.7077 23.0849 35.1433 23.6416L52.432 45.7445L49.0659 49.9809L32.6181 28.9534C29.4631 24.92 28.0311 20.0276 28.5172 15.1707L32.4634 20.2155C32.8989 20.7724 33.7547 20.9066 34.3747 20.5157C34.9948 20.1247 35.1444 19.3562 34.7089 18.7994L28.8271 11.2799C28.5168 10.8828 27.9752 10.6874 27.4446 10.7791C26.9142 10.871 26.4926 11.2346 26.3686 11.7069C24.6759 18.1501 26.1353 24.9523 30.3728 30.3697L42.3889 45.7316L41.2942 51.3548C40.6766 51.1682 40.0429 51.0234 39.3976 50.9224C36.0027 50.3894 32.5792 51.0758 29.758 52.8551C26.9369 54.6345 25.0563 57.2932 24.4627 60.342C23.8689 63.3913 24.6334 66.4658 26.6149 68.9989C28.5963 71.5317 31.5574 73.2201 34.9529 73.753C35.7041 73.8709 36.4565 73.9293 37.2035 73.9293C39.834 73.9293 42.3966 73.2067 44.5934 71.8212C47.414 70.0422 49.2942 67.383 49.8881 64.3335L51.2934 57.1155L56.4231 63.6734C58.4518 66.2671 61.483 67.9934 64.9584 68.5345C65.7079 68.6511 66.4576 68.7089 67.201 68.7089C69.8244 68.7089 72.3692 67.9909 74.5389 66.6145C77.4216 64.7854 79.3064 62.0524 79.8455 58.9187C80.3843 55.7862 79.5036 52.6675 77.3654 50.1373ZM47.1846 63.9088C46.7173 66.3101 45.2367 68.4038 43.0159 69.8046C40.795 71.2051 38.0996 71.7456 35.4252 71.3254C32.7518 70.9058 30.4204 69.5763 28.8603 67.5821C27.3001 65.5877 26.6982 63.167 27.1658 60.766C27.6331 58.3655 29.1138 56.2721 31.3352 54.8711C33.5566 53.4701 36.2523 52.9298 38.9253 53.3493C39.9045 53.5031 40.85 53.7836 41.735 54.1827C42.1229 54.3577 42.5797 54.3575 42.9675 54.1825C43.3552 54.0074 43.6278 53.6779 43.7026 53.294L44.6199 48.5833L49.0629 54.2637L47.1846 63.9088ZM77.1333 58.5419C76.7087 61.0093 75.2247 63.1614 72.955 64.6013C70.7704 65.9874 68.0967 66.5218 65.4268 66.1062C62.6752 65.6779 60.2746 64.3106 58.6681 62.2566L51.6373 53.2679C51.6357 53.2657 51.634 53.2637 51.6322 53.2615L50.7385 52.1186L54.1047 47.8822L56.9009 51.4569C57.1502 51.7758 57.5527 51.9699 57.9864 51.9804C58.4218 51.9925 58.8336 51.8166 59.102 51.5106C59.8814 50.6211 60.8298 49.8754 61.9212 49.2943C64.0524 48.1592 66.5816 47.7724 69.0416 48.2055C71.5019 48.6384 73.682 49.8534 75.1801 51.6266C76.8639 53.62 77.5577 56.0759 77.1333 58.5419Z" fill="#DDBE8F"/>
<path d="M38.5573 55.24C36.4457 54.9085 34.3173 55.3352 32.5635 56.4414C30.8095 57.5476 29.6404 59.201 29.2712 61.0968C28.5093 65.0105 31.4354 68.7512 35.7934 69.4353C36.2603 69.5085 36.728 69.5449 37.1923 69.5449C38.8277 69.5449 40.4211 69.0955 41.7872 68.2341C43.5412 67.1279 44.7104 65.4746 45.0796 63.5788C45.8415 59.6648 42.9156 55.9243 38.5573 55.24ZM42.3765 63.1542C41.8751 65.7295 39.135 67.4593 36.2659 67.0081C33.398 66.5579 31.4726 64.0964 31.9741 61.521C32.4755 58.9457 35.2161 57.2168 38.0847 57.6672C40.9526 58.1175 42.878 60.579 42.3765 63.1542Z" fill="#DDBE8F"/>
<path d="M48.6762 43.0686C48.1594 42.8226 47.5086 42.899 47.0842 43.2624C46.6052 43.6724 46.5273 44.3442 46.8899 44.8386C47.5582 45.7501 49.1727 45.4313 49.3802 44.3653C49.4808 43.8484 49.1934 43.3147 48.6762 43.0686Z" fill="#DDBE8F"/>
<path d="M25.7122 46.7848L25.7024 46.7355C25.3698 45.0749 23.7646 43.8694 21.8856 43.8694H14.9107C13.644 43.8694 12.4802 43.4387 11.7641 42.7753H20.7269C21.4846 42.7753 22.099 42.2238 22.099 41.5433C22.099 40.8628 21.4847 40.3112 20.7269 40.3112H10.7465C10.5822 39.6077 10.4296 38.9035 10.2889 38.1988H19.9493C20.707 38.1988 21.3214 37.6472 21.3214 36.9667C21.3214 36.2862 20.7072 35.7347 19.9493 35.7347H9.84344C9.73056 35.0314 9.62863 34.3279 9.53911 33.6238H19.6383C20.396 33.6238 21.0104 33.0722 21.0104 32.3917C21.0104 31.7114 20.3961 31.1597 19.6383 31.1597H9.27544C9.2132 30.4559 9.16273 29.7516 9.12385 29.0472H19.6383C20.396 29.0472 21.0104 28.4957 21.0104 27.8152C21.0104 27.1347 20.3961 26.5831 19.6383 26.5831H9.03367C9.02191 25.8789 9.02191 25.1749 9.03367 24.4706H19.7409C20.4985 24.4706 21.1129 23.9191 21.1129 23.2386C21.1129 22.5581 20.4987 22.0065 19.7409 22.0065H9.12385C9.16256 21.3029 9.21304 20.599 9.27528 19.8957H19.9493C20.707 19.8957 21.3214 19.3441 21.3214 18.6636C21.3214 17.9831 20.7072 17.4316 19.9493 17.4316H9.53894C9.62863 16.727 9.7304 16.023 9.84361 15.3191H20.2733C21.0309 15.3191 21.6453 14.7675 21.6453 14.087C21.6453 13.4065 21.0311 12.855 20.2733 12.855H10.2889C10.4297 12.1503 10.5822 11.446 10.7467 10.7425H20.7269C21.4846 10.7425 22.099 10.1909 22.099 9.51045C22.099 8.8301 21.4847 8.2784 20.7269 8.2784H11.7637C12.4799 7.61507 13.644 7.18424 14.9105 7.18424H21.8855C23.7661 7.18424 25.3712 5.9783 25.7025 4.31645L25.7115 4.27142C25.9157 3.25398 25.6091 2.21512 24.8704 1.42167C24.1315 0.628519 23.0469 0.17334 21.8946 0.17334H8.8231C5.65998 0.17334 2.86948 2.09601 2.03716 4.84879C0.4779 10.0076 -0.990209 22.0103 0.872249 49.8948C0.917663 50.5738 1.56832 51.093 2.32386 51.0507C3.08021 51.0099 3.65671 50.4264 3.61129 49.7471C2.15494 27.9397 2.52626 12.6373 4.68554 5.49423C5.19392 3.81228 6.89563 2.63744 8.8231 2.63744H21.8946C22.3559 2.63744 22.6381 2.86642 22.7652 3.00299C22.8919 3.13926 23.0925 3.42854 23.0077 3.85159L23.0014 3.88372C22.9047 4.36911 22.4353 4.72132 21.8855 4.72132H14.9105C11.749 4.72132 9.01521 6.43744 8.41029 8.80194C5.56981 19.9004 5.56981 31.1549 8.41029 42.2531C9.01521 44.6176 11.749 46.3337 14.9105 46.3337H21.8855C22.4348 46.3337 22.9042 46.6862 23.0014 47.1712L23.0112 47.2206C23.0927 47.6277 22.8923 47.9168 22.7653 48.0528C22.6386 48.1889 22.3571 48.4175 21.8966 48.4175H17.3062C14.6634 48.4175 12.4428 50.2715 12.251 52.6386L10.7997 70.5575C10.6973 71.8233 9.5097 72.8149 8.09632 72.8149C6.68898 72.8149 5.5288 71.8663 5.39762 70.6083C5.01275 66.9184 4.4454 61.0798 3.92886 54.2185C3.87789 53.5396 3.22135 53.0259 2.46745 53.0724C1.71142 53.1182 1.14016 53.7058 1.19113 54.3847C1.70979 61.2724 2.27926 67.1338 2.66561 70.838C2.92959 73.3699 5.26432 75.2791 8.09632 75.2791C10.9406 75.2791 13.33 73.2836 13.5367 70.7364L14.988 52.8176C15.0758 51.7321 16.0942 50.8817 17.3063 50.8817H21.8967C23.0479 50.8813 24.132 50.4264 24.8705 49.6332C25.6089 48.8401 25.9157 47.8017 25.7122 46.7848Z" fill="#DDBE8F"/>
</svg>
